<?xml version="1.0" standalone="yes"?>
<svg xmlns="http://www.w3.org/2000/svg" width="300" height="200">
<path style="fill:#ffffff; stroke:none;" d="M0 0L0 200L300 200L300 0L0 0z"/>
<path style="fill:#0eb1c9; stroke:none;" d="M23 57L23 107C31.5985 107 44.636 109.297 51.7755 103.348C60.3613 96.1942 55.4561 82.1646 45 81C54.0857 77.2919 60.085 65.3715 48.9846 59.1397C41.8198 55.1173 30.9148 57 23 57M64 57L64 107L74 107L74 67L75 67L85 107L93 107L103 67L104 67L104 107L114 107L114 57C110.011 57 102.024 55.4689 98.7276 58.0278C93.2408 62.2871 90.5481 82.2898 90 89L79.4869 58.0278L64 57M124 57L124 100L118 100L130 115L131 115L142 100L136 100L136 57L124 57z"/>
<path style="fill:#555757; stroke:none;" d="M145 57L145 107L157 107L157 85L158 85C163.289 99.5284 168.576 107 184 107L168.545 80.4244L183 57C168.999 57 162.443 63.0575 158 77L157 77L157 57L145 57M187 57L187 107L199 107L199 57L187 57M204 57L204 66L215 66L215 107L227 107L227 66L238 66L238 57L204 57M251 57L235 107L247 107L249 95C260.569 95 265.443 94.6105 268 107L280 107L265 57L251 57z"/>
<path style="fill:#ffffff; stroke:none;" d="M34 65L34 77C45.1108 76.7307 44.9774 65.3565 34 65M257 68L252 87L263 87L257 68M34 85L34 99C46.4329 98.6993 46.4329 85.3007 34 85z"/>
<path style="fill:#63d1e5; stroke:none;" d="M117 100L118 101L117 100M142 100L143 101L142 100M141 101L142 102L141 101M139 104L140 105L139 104M121 105L122 106L121 105M138 105L139 106L138 105M122 106L123 107L122 106M123 107L124 108L123 107M124 108L125 109L124 108M135 109L136 110L135 109M134 110L135 111L134 110M128 113L129 114L128 113M132 113L133 114L132 113M129 114L130 115L129 114M131 114L132 115L131 114M130 115L131 116L130 115z"/>
<path style="fill:#db4813; stroke:none;" d="M21 116L21 140L118 140L118 116L21 116z"/>
<path style="fill:#0eb1c9; stroke:none;" d="M118 116L118 140L183 140L183 116L118 116z"/>
<path style="fill:#555757; stroke:none;" d="M183 116L183 140L184 140L183 116z"/>
<path style="fill:#db4813; stroke:none;" d="M184 116L184 140L280 140L280 116L184 116z"/>
</svg>
